<svg xmlns="http://www.w3.org/2000/svg" 
     width="211.667mm" height="40.4927mm" 
     viewBox="0 0 21169.32 4049.78"
     aria-labelledby="logoTitle logoDesc"
     style="shape-rendering:geometricPrecision; text-rendering:geometricPrecision; image-rendering:optimizeQuality; fill-rule:evenodd; clip-rule:evenodd">
     
  <title id="logoTitle">Logo de INACONS - Ingenieria y Construcción</title>
  <desc id="logoDesc">El logo consiste en un ícono geométrico azul y el texto "INACONS" con el eslogan "INGENIERIA Y CONSTRUCCIÓN" debajo.</desc>

  <defs>
    <style type="text/css">
      .color-principal    { fill:#14172D; }
      .color-secundario   { fill:#1B5278; }
      .texto-principal    { fill:#14172D; fill-rule:nonzero; }
      .texto-eslogan      { fill:#1B5278; fill-rule:nonzero; }
    </style>
  </defs>

  <g id="logo-completo">
  
    <g id="icono">
      <polygon class="color-principal" points="2209,1840.77 2209,0 4049.79,0 4049.79,1840.77 "/>
      <polygon class="color-secundario" points="2101.13,2208.99 4049.79,2208.99 4049.79,4049.78 260.34,4049.78 "/>
      <polygon class="color-secundario" points="-0,0 1840.77,0 1840.77,1948.67 -0,3789.44 "/>
    </g>

    <g id="texto-principal">
      <polygon class="texto-principal" points="5171.32,460.19 4602.03,460.19 4602.03,2797.24 5171.32,2797.24 "/>
      <path class="texto-principal" d="M7390.75 2874.1c165.01,0 313.53,-129.25 313.53,-440.15l0 -1935.31 -519.8 0 0 1372.89 -1127.58 -1285.57c-90.75,-104.79 -159.51,-125.77 -228.28,-125.77 -162.26,0 -310.78,125.77 -310.78,436.67l0 1938.82 517.05 0 0 -1372.89 1127.58 1285.55c88.01,104.8 156.76,125.76 228.28,125.76z"/>
      <path class="texto-principal" d="M10880.79 2835.68l-1149.59 -2113.47c-79.77,-146.74 -192.52,-262.02 -363.05,-262.02 -178.76,0 -291.51,125.77 -368.52,262.02l-1179.85 2113.47 673.81 0 863.56 -1551.06 330.01 618.33c60.53,111.8 137.53,255.03 187.04,338.86l-789.34 0 -343.75 593.87 2139.67 0z"/>
      <path class="texto-principal" d="M11851.59 2196.37c-310.76,0 -539.03,-227.06 -539.03,-558.93 0,-335.35 231.02,-569.43 539.03,-569.43l924.1 0 365.78 -607.83 -1289.87 0c-638.04,0 -1108.33,461.12 -1108.33,1145.81 0,677.71 470.29,1191.24 1108.33,1191.24l924.1 0 365.78 -600.86 -1289.87 0z"/>
      <path class="texto-principal" d="M14626.56 460.19c-896.55,0 -1344.87,370.32 -1344.87,1205.23 0,834.9 448.32,1208.68 1344.87,1208.68 893.82,0 1344.87,-373.78 1344.87,-1208.68 0,-834.91 -451.05,-1205.23 -1344.87,-1205.23zm0 1806.09c-572.03,0 -778.32,-97.81 -778.32,-600.85 0,-503.05 206.29,-597.37 778.32,-597.37 572.03,0 778.33,94.32 778.33,597.37 0,503.04 -206.3,600.85 -778.33,600.85z"/>
      <path class="texto-principal" d="M18124.84 2874.1c165.02,0 313.54,-129.25 313.54,-440.15l0 -1935.31 -519.8 0 0 1372.89 -1127.59 -1285.57c-90.74,-104.79 -159.51,-125.77 -228.27,-125.77 -162.27,0 -310.79,125.77 -310.79,436.67l0 1938.82 517.05 0 0 -1372.89 1127.59 1285.55c88.01,104.8 156.75,125.76 228.27,125.76z"/>
      <path class="texto-principal" d="M19477.95 1392.91c-132.01,0 -195.26,-45.41 -195.26,-164.2 0,-118.76 63.26,-160.7 195.26,-160.7l1276.12 0 365.77 -607.83 -1597.88 0c-558.29,0 -789.32,286.46 -789.32,726.62 0,401.72 217.27,670.71 690.32,670.71l1001.08 0c134.76,0 195.25,48.92 195.25,167.68 0,122.28 -60.5,171.17 -195.25,171.17l-1391.62 0 -365.79 600.86 1713.4 0c561.04,0 789.29,-286.46 789.29,-765.05 0,-426.19 -242,-639.28 -690.29,-639.28l-1001.08 0z"/>
    </g>

    <g id="eslogan">
      <polygon class="texto-eslogan" points="4602.03,3819.69 4602.03,3354.96 4704.41,3354.96 4704.41,3819.69 "/>
      <path class="texto-eslogan" d="M4926.65 3819.69l0 -464.73 69.98 0 307.77 273.62c10.36,9.62 19.43,17.86 27.86,26.11 7.77,7.56 14.9,16.5 21.38,24.74 -1.31,-26.11 -2.59,-44.69 -3.25,-55.68 0,-10.3 -0.64,-19.25 -0.64,-24.74l0 -244.06 91.35 0 0 464.73 -69.32 0 -321.38 -286.68c-7.77,-7.56 -14.25,-14.43 -20.09,-19.93l-16.2 -17.87c1.3,13.74 2.59,27.5 3.25,40.56 0.64,12.37 0.64,23.38 0.64,32.99l0 250.93 -91.35 0z"/>
      <path class="texto-eslogan" d="M6074.81 3438.15l-317.49 0 0 294.24 317.49 0 0 -103.8 -166.52 0 0 -79.06 265.66 0 0 160.16c0,42.64 -7.79,71.5 -22.68,86.62 -14.91,15.14 -43.42,23.38 -85.53,23.38l-301.94 0c-42.78,0 -71.28,-8.24 -86.18,-23.38 -14.91,-15.12 -22.03,-43.99 -22.03,-86.62l0 -244.72c0,-41.94 7.12,-70.82 22.03,-86.62 14.9,-15.14 43.41,-23.38 86.18,-23.38l301.94 0c41.47,0 69.98,8.24 85.53,23.38 14.89,15.12 22.68,42.63 22.68,82.49l0 10.31 -99.14 19.25 0 -52.25z"/>
      <polygon class="texto-eslogan" points="6389.07,3819.69 6389.07,3354.96 6836.79,3354.96 6836.79,3434.02 6490.78,3434.02 6490.78,3537.83 6692.94,3537.83 6692.94,3616.89 6490.78,3616.89 6490.78,3732.39 6841.33,3732.39 6841.33,3819.69 "/>
      <path class="texto-eslogan" d="M7027.94 3819.69l0 -464.73 69.98 0 307.78 273.62c10.36,9.62 19.43,17.86 27.86,26.11 7.77,7.56 14.89,16.5 22.02,24.74 -1.95,-26.11 -3.23,-44.69 -3.89,-55.68 0,-10.3 -0.65,-19.25 -0.65,-24.74l0 -244.06 91.36 0 0 464.73 -69.34 0 -321.36 -286.68c-7.79,-7.56 -14.26,-14.43 -20.1,-19.93l-16.19 -17.87c1.3,13.74 2.59,27.5 3.25,40.56 0.64,12.37 1.28,23.38 1.28,32.99l0 250.93 -92 0z"/>
      <polygon class="texto-eslogan" points="7765.94,3819.69 7765.94,3354.96 7867.68,3354.96 7867.68,3819.69 "/>
      <polygon class="texto-eslogan" points="8091.2,3819.69 8091.2,3354.96 8538.94,3354.96 8538.94,3434.02 8192.94,3434.02 8192.94,3537.83 8395.11,3537.83 8395.11,3616.89 8192.94,3616.89 8192.94,3732.39 8542.83,3732.39 8542.83,3819.69 "/>
      <path class="texto-eslogan" d="M9059.9 3435.4l-228.73 0 0 129.25 228.73 0c17.48,0 29.8,-2.75 36.27,-8.26 6.48,-5.5 9.71,-14.42 9.71,-28.86l0 -55.7c0,-13.05 -3.23,-22.68 -9.71,-28.17 -6.47,-5.5 -18.79,-8.25 -36.27,-8.25zm-329.16 384.29l0 -464.73 374.51 0c34.34,0 59.62,7.56 75.16,21.32 15.55,14.44 23.32,37.12 23.32,68.73l0 109.32c0,30.92 -7.77,54.31 -23.32,68.05 -15.54,14.44 -40.82,22 -75.16,22l-57.02 0 201.51 175.3 -145.78 0 -176.25 -175.3 -96.53 0 0 175.3 -100.43 0z"/>
      <polygon class="texto-eslogan" points="9410.42,3819.69 9410.42,3354.96 9512.17,3354.96 9512.17,3819.69 "/>
      <path class="texto-eslogan" d="M9847.8 3634.07l191.79 0 -93.97 -189.06 -97.82 189.06zm-195.67 185.61l247.51 -464.73 98.48 0 250.74 464.73 -114.68 0 -52.47 -101.74 -277.32 0 -50.55 101.74 -101.71 0z"/>
      <polygon class="texto-eslogan" points="10839.8,3819.69 10839.8,3612.07 10612.36,3354.96 10748.44,3354.96 10898.76,3533.7 11049.09,3354.96 11168.95,3354.96 10942.17,3609.33 10942.17,3819.69 "/>
      <path class="texto-eslogan" d="M11982.77 3438.15l-274.73 0 0 294.24 274.73 0 0 -99.69 101.71 22 0 54.99c0,42.64 -7.76,71.5 -22.66,86.62 -14.91,15.14 -43.42,23.38 -86.17,23.38l-261.12 0c-42.12,0 -71.29,-8.24 -86.18,-23.38 -14.91,-15.12 -22.04,-43.99 -22.04,-86.62l0 -244.72c0,-41.94 7.13,-70.82 22.04,-86.62 14.89,-15.14 44.07,-23.38 86.18,-23.38l261.12 0c42.76,0 71.26,8.24 86.17,23.38 14.9,15.8 22.66,44.69 22.66,86.62l0 43.99 -101.71 17.19 0 -87.99z"/>
      <path class="texto-eslogan" d="M12387.08 3732.39l335.64 0 0 -294.24 -335.64 0 0 294.24zm-101.71 -267.42c0,-41.94 7.12,-70.82 22.02,-86.62 14.89,-15.14 43.42,-23.38 86.18,-23.38l322.02 0c42.12,0 71.29,8.24 86.18,23.38 14.89,15.8 22.02,44.69 22.02,86.62l0 244.72c0,42.64 -7.13,71.5 -22.02,86.62 -14.89,15.14 -44.07,23.38 -86.18,23.38l-322.02 0c-42.77,0 -71.29,-8.24 -86.18,-23.38 -14.9,-15.12 -22.02,-43.99 -22.02,-86.62l0 -244.72z"/>
      <path class="texto-eslogan" d="M13037.63 3819.69l0 -464.73 69.34 0 307.77 273.62c11,9.62 20.08,17.86 27.86,26.11 8.41,7.56 15.54,16.5 22.02,24.74 -1.94,-26.11 -2.59,-44.69 -3.23,-55.68 -0.66,-10.3 -0.66,-19.25 -0.66,-24.74l0 -244.06 91.37 0 0 464.73 -69.33 0 -321.39 -286.68c-7.77,-7.56 -14.89,-14.43 -20.09,-19.93l-16.18 -17.87c1.29,13.74 1.93,27.5 2.59,40.56 0.64,12.37 1.29,23.38 1.29,32.99l0 250.93 -91.36 0z"/>
      <path class="texto-eslogan" d="M14154.05 3436.77l-286.4 0 0 99.67 272.78 0c42.76,0 71.93,7.56 86.82,22.7 14.89,15.8 22.68,44.69 22.68,86.62l0 63.92c0,41.94 -7.79,70.82 -22.68,86.62 -14.89,15.14 -44.07,23.38 -86.82,23.38l-270.19 0c-42.77,0 -71.93,-8.24 -86.82,-23.38 -14.91,-15.8 -22.68,-44.69 -22.68,-86.62l0 -13.05 90.07 -19.25 0 55.01 309.06 0 0 -105.87 -272.78 0c-42.12,0 -71.27,-8.26 -86.18,-23.38 -14.89,-15.8 -22.02,-44.69 -22.02,-86.62l0 -51.55c0,-41.94 7.13,-70.82 22.02,-86.62 14.91,-15.14 44.07,-23.38 86.18,-23.38l248.81 0c40.82,0 69.34,7.56 84.88,22.68 15.55,15.12 23.32,41.26 23.32,79.74l0 9.63 -90.05 22 0 -52.25z"/>
      <polygon class="texto-eslogan" points="14664.63,3438.15 14664.63,3819.69 14562.9,3819.69 14562.9,3438.15 14362.03,3438.15 14362.03,3354.96 14866.13,3354.96 14866.13,3438.15 "/>
      <path class="texto-eslogan" d="M15319.68 3435.4l-228.72 0 0 129.25 228.72 0c17.5,0 29.81,-2.75 36.29,-8.26 6.48,-5.5 9.72,-14.42 9.72,-28.86l0 -55.7c0,-13.05 -3.24,-22.68 -9.72,-28.17 -6.48,-5.5 -18.79,-8.25 -36.29,-8.25zm-329.15 384.29l0 -464.73 374.52 0c34.35,0 59.61,7.56 75.16,21.32 15.56,14.44 23.33,37.12 23.33,68.73l0 109.32c0,30.92 -7.77,54.31 -23.33,68.05 -15.55,14.44 -40.81,22 -75.16,22l-57.03 0 201.53 175.3 -145.8 0 -176.23 -175.3 -96.55 0 0 175.3 -100.43 0z"/>
      <path class="texto-eslogan" d="M15771.95 3354.96l0 377.43 290.3 0 0 -377.43 101.71 0 0 354.72c0,42.64 -7.77,71.5 -22.66,86.62 -14.91,15.14 -43.42,23.38 -86.18,23.38l-276.67 0c-42.12,0 -70.62,-8.24 -85.54,-23.38 -14.89,-15.12 -22.66,-43.99 -22.66,-86.62l0 -354.72 101.71 0z"/>
      <path class="texto-eslogan" d="M16754.9 3438.15l-274.73 0 0 294.24 274.73 0 0 -99.69 101.71 22 0 54.99c0,42.64 -7.77,71.5 -22.66,86.62 -14.91,15.14 -43.43,23.38 -86.18,23.38l-261.12 0c-42.12,0 -70.64,-8.24 -85.53,-23.38 -14.9,-15.12 -22.68,-43.99 -22.68,-86.62l0 -244.72c0,-41.94 7.78,-70.82 22.68,-86.62 14.89,-15.14 43.42,-23.38 85.53,-23.38l261.12 0c42.76,0 71.27,8.24 86.18,23.38 14.89,15.8 22.66,44.69 22.66,86.62l0 43.99 -101.71 17.19 0 -87.99z"/>
      <path class="texto-eslogan" d="M17433.27 3438.15l-274.06 0 0 294.24 274.06 0 0 -99.69 101.74 22 0 54.99c0,42.64 -7.13,71.5 -22.02,86.62 -15.56,15.14 -44.07,23.38 -86.18,23.38l-261.12 0c-42.78,0 -71.28,-8.24 -86.18,-23.38 -14.91,-15.12 -22.03,-43.99 -22.03,-86.62l0 -244.72c0,-41.94 7.12,-70.82 22.03,-86.62 14.9,-15.14 43.41,-23.38 86.18,-23.38l261.12 0c42.12,0 70.62,8.24 86.18,23.38 14.89,15.8 22.02,44.69 22.02,86.62l0 43.99 -101.74 17.19 0 -87.99z"/>
      <polygon class="texto-eslogan" points="17744.94,3819.69 17744.94,3354.96 17846.69,3354.96 17846.69,3819.69 "/>
      <path class="texto-eslogan" d="M18269.79 3306.14l84.87 -151.92 91.37 0 -121.83 151.92 -54.42 0zm-106.92 426.24l336.28 0 0 -294.24 -336.28 0 0 294.24zm-101.71 -267.42c0,-41.94 7.77,-70.82 22.66,-86.62 14.92,-15.14 43.43,-23.38 86.18,-23.38l322.03 0c42.12,0 71.28,8.24 86.17,23.38 14.92,15.8 22.04,44.69 22.04,86.62l0 244.72c0,42.64 -7.12,71.5 -22.04,86.62 -14.89,15.14 -44.06,23.38 -86.17,23.38l-322.03 0c-42.76,0 -71.26,-8.24 -86.18,-23.38 -14.89,-15.12 -22.66,-43.99 -22.66,-86.62l0 -244.72z"/>
      <path class="texto-eslogan" d="M18814.06 3819.69l0 -464.73 69.33 0 307.78 273.62c10.37,9.62 20.09,17.86 27.86,26.11 7.77,7.56 15.55,16.5 22.02,24.74 -1.93,-26.11 -2.59,-44.69 -3.24,-55.68 -0.64,-10.3 -1.28,-19.25 -1.28,-24.74l0 -244.06 92 0 0 464.73 -69.98 0 -320.74 -286.68c-7.77,-7.56 -14.9,-14.43 -20.72,-19.93l-16.2 -17.87c1.93,13.74 2.59,27.5 3.24,40.56 0.64,12.37 1.3,23.38 1.3,32.99l0 250.93 -91.37 0z"/>
    </g>
    
  </g>
</svg>