<svg width="600" height="400" viewBox="0 0 600 400" fill="none" xmlns="http://www.w3.org/2000/svg">
  <!-- Background -->
  <rect width="600" height="400" fill="#F8F9FA"/>
  
  <!-- Construction site background -->
  <rect x="0" y="300" width="600" height="100" fill="#E2E8F0"/>
  
  <!-- Building structure -->
  <rect x="400" y="150" width="150" height="150" fill="#CBD5E0" stroke="#A0AEC0" stroke-width="2"/>
  <rect x="420" y="170" width="30" height="40" fill="#4A5568"/>
  <rect x="470" y="170" width="30" height="40" fill="#4A5568"/>
  <rect x="520" y="170" width="30" height="40" fill="#4A5568"/>
  <rect x="420" y="230" width="30" height="40" fill="#4A5568"/>
  <rect x="470" y="230" width="30" height="40" fill="#4A5568"/>
  <rect x="520" y="230" width="30" height="40" fill="#4A5568"/>
  
  <!-- Crane -->
  <line x1="350" y1="100" x2="350" y2="300" stroke="#D9822B" stroke-width="4"/>
  <line x1="300" y1="120" x2="450" y2="120" stroke="#D9822B" stroke-width="3"/>
  <rect x="340" y="115" width="20" height="10" fill="#1B5278"/>
  
  <!-- Team members -->
  <!-- Person 1 - Engineer with helmet -->
  <circle cx="150" cy="220" r="25" fill="#F7FAFC"/>
  <rect x="140" y="200" width="20" height="15" fill="#D9822B" rx="10"/>
  <rect x="130" y="245" width="40" height="55" fill="#1B5278" rx="5"/>
  <rect x="125" y="280" width="15" height="20" fill="#2D3748"/>
  <rect x="160" y="280" width="15" height="20" fill="#2D3748"/>
  
  <!-- Person 2 - Worker -->
  <circle cx="220" cy="230" r="20" fill="#F7FAFC"/>
  <rect x="215" y="215" width="10" height="10" fill="#D9822B" rx="5"/>
  <rect x="205" y="250" width="30" height="50" fill="#14172D" rx="5"/>
  <rect x="200" y="285" width="12" height="15" fill="#2D3748"/>
  <rect x="228" y="285" width="12" height="15" fill="#2D3748"/>
  
  <!-- Person 3 - Supervisor -->
  <circle cx="280" cy="225" r="22" fill="#F7FAFC"/>
  <rect x="275" y="210" width="10" height="8" fill="#D9822B" rx="4"/>
  <rect x="265" y="247" width="30" height="53" fill="#1B5278" rx="5"/>
  <rect x="260" y="285" width="12" height="15" fill="#2D3748"/>
  <rect x="288" y="285" width="12" height="15" fill="#2D3748"/>
  
  <!-- Tools and equipment -->
  <rect x="100" y="280" width="30" height="8" fill="#A0AEC0" rx="4"/>
  <circle cx="115" cy="275" r="3" fill="#718096"/>
  
  <!-- Blueprint/plans -->
  <rect x="180" y="320" width="40" height="30" fill="#FFFFFF" stroke="#CBD5E0" stroke-width="1"/>
  <line x1="185" y1="325" x2="215" y2="325" stroke="#1B5278" stroke-width="1"/>
  <line x1="185" y1="330" x2="210" y2="330" stroke="#1B5278" stroke-width="1"/>
  <line x1="185" y1="335" x2="205" y2="335" stroke="#1B5278" stroke-width="1"/>
  
  <!-- Company logo area -->
  <text x="50" y="50" font-family="Inter, sans-serif" font-size="24" font-weight="bold" fill="#14172D">INACONS</text>
  <text x="50" y="75" font-family="Inter, sans-serif" font-size="14" fill="#1B5278">Construyendo el futuro</text>
  
  <!-- Decorative elements -->
  <circle cx="500" cy="80" r="8" fill="#D9822B" opacity="0.3"/>
  <circle cx="520" cy="60" r="5" fill="#1B5278" opacity="0.4"/>
  <circle cx="480" cy="90" r="6" fill="#14172D" opacity="0.2"/>
</svg>